<svg width="322" height="254" viewBox="0 0 322 254" fill="none" xmlns="http://www.w3.org/2000/svg">
<path d="M199 116.887C203.809 109.084 208.355 98.6211 220.24 101.483C225.887 102.843 230.276 110.409 229.93 115.219C229.644 119.209 230.877 124.249 226.295 126.733C222.696 128.684 218.148 128.407 215.31 125.386C207.25 116.807 222.143 110.797 229.528 112.109C239.608 113.901 251.289 136.47 242.509 143.598C234.981 149.71 230.029 140.331 235.287 134.768C242.683 126.943 249.487 126.694 258.088 135.064C264.804 141.599 262.784 153.134 257.365 159.201C256.24 160.462 252.028 169.283 251.011 168.398C240.975 159.672 258.755 146.815 268.635 148.643C279.986 150.743 291.446 152.985 298.949 161.059C302.984 165.402 310.431 180.937 309 175.427C307.209 168.533 305.49 159.072 308.67 152.206C309.616 150.162 312.462 143.572 310.059 149.969C307.585 156.557 305.235 162.308 304.228 168.85C304.004 170.305 306.109 172.371 306.827 173.605C307.435 174.651 302.7 173.308 302.134 173.255C297.248 172.799 292.782 174.49 288.596 176.591C284.859 178.468 280.583 181.989 277.765 180.737" stroke="#00ADB5" stroke-opacity="0.2" stroke-width="4" stroke-linecap="round" stroke-linejoin="round"/>
<path d="M173 180.717C167.751 185.227 162.16 191.548 153.703 187.923C149.685 186.201 147.889 180.522 149.133 177.364C150.164 174.744 150.254 171.205 154.246 170.21C157.381 169.428 160.784 170.27 162.327 172.694C166.708 179.579 154.154 181.437 148.805 179.495C141.503 176.845 137.22 160.107 145.352 156.621C152.323 153.632 154.179 160.602 149.045 163.553C141.823 167.703 136.597 166.887 131.762 160.063C127.986 154.735 131.874 147.334 137.233 144.07C138.346 143.392 143.349 138.118 143.942 138.854C149.796 146.123 133.65 152.13 126.508 149.485C118.302 146.445 110.042 143.295 105.982 136.827C103.798 133.348 101.301 121.913 101.266 125.793C101.223 130.65 100.601 137.207 96.7824 141.328C95.6461 142.554 92.1375 146.538 95.2695 142.619C98.495 138.583 101.455 135.087 103.555 130.869C104.022 129.931 102.843 128.249 102.548 127.322C102.298 126.537 105.626 128.117 106.046 128.234C109.669 129.243 113.411 128.76 117.024 127.963C120.249 127.251 124.22 125.521 126.108 126.763" stroke="#00ADB5" stroke-opacity="0.2" stroke-width="4" stroke-linecap="round" stroke-linejoin="round"/>
<path d="M194.171 174.24C205.616 173.084 217.048 170.234 228.484 168.6C232.13 168.079 235.906 167.33 239.227 165.82C241.065 164.984 241.954 164.269 242.816 166.424C243.443 167.992 244.012 169.738 244.012 171.339C244.012 172.956 245.112 174.484 245.208 176.053C245.303 177.603 245.655 179.425 246.028 180.949C246.69 183.657 247.813 186.226 247.999 189.108C248.088 190.477 240.721 192.576 239.006 193.096C234.401 194.492 230.051 196.245 225.094 197.065C219.2 198.04 212.928 198.475 207.24 200.067C205.684 200.502 201.747 200.145 201.747 202.021C201.747 204.21 201.287 205.075 200.639 207.077C200.206 208.417 199.494 209.839 198.756 211.046C198.614 211.279 198.002 213 197.959 213C197.497 213 196.78 211.411 196.563 211.066C194.736 208.159 192.809 205.171 191.801 201.96C191.426 200.768 191.031 199.622 190.494 198.536C189.896 197.328 188.589 195.125 188.589 193.822C188.589 191.178 186.994 188.731 186.994 186.207C186.994 184.809 185.797 183.824 185.797 182.399C185.797 181.232 185 179.901 185 178.773C185 176.092 191.194 177.204 192.155 175.892C192.21 175.817 194.612 175.37 195.057 175.046C196.045 174.327 197.123 173.95 198.557 173.515" stroke="#00ADB5" stroke-opacity="0.2" stroke-width="3" stroke-linecap="round"/>
<path d="M148.754 242.505C150.937 244.168 154.484 243.578 156.911 244.605C158.765 245.389 160.239 244.739 162.079 244.605C164.054 244.46 165.886 243.345 167.909 243.345C168.56 243.345 172.242 242.013 172.465 242.179C175.302 244.28 181.707 232.917 182.287 230.982C183.935 225.49 182.863 216.678 177.633 212.695C170.199 207.031 159.066 208.076 149.979 208.076C146.498 208.076 142.361 208.52 139.838 210.922C138.011 212.661 137.38 214.582 135.87 216.38C134.275 218.278 132.882 222.01 132.882 224.451C132.882 226.061 132 227.225 132 228.859C132 230.386 132.553 232.384 132.906 233.898C133.235 235.307 133.256 237.43 133.862 238.726C134.58 240.266 134.642 242.898 135.748 244.161C137.365 246.01 138.482 249.291 140.598 250.903C141.435 251.54 141.593 248.875 141.7 247.963C141.811 247.011 142.461 245.2 143.243 244.605C145.224 243.095 146.395 240.752 149.195 242.085" stroke="#00ADB5" stroke-opacity="0.2" stroke-width="3" stroke-linecap="round"/>
<path d="M224.142 209.925C226.747 209.925 228.801 208 231.844 208C235.411 208 238.409 208.963 241.952 208.963C247.889 208.963 253.825 208.963 259.762 208.963C272.598 208.963 285.434 208.963 298.27 208.963" stroke="#00ADB5" stroke-opacity="0.2" stroke-width="3" stroke-linecap="round"/>
<path d="M202 220.925C226.879 223.69 302.123 221.888 277.091 221.888" stroke="#00ADB5" stroke-opacity="0.2" stroke-width="3" stroke-linecap="round"/>
<path d="M230.881 233.465C231.369 237.373 293.514 235.39 305.009 235.39" stroke="#00ADB5" stroke-opacity="0.2" stroke-width="3" stroke-linecap="round"/>
<path d="M155.754 126.505C157.937 128.168 161.484 127.578 163.911 128.605C165.765 129.389 167.239 128.739 169.079 128.605C171.054 128.46 172.886 127.345 174.909 127.345C175.56 127.345 179.242 126.013 179.465 126.179C182.302 128.28 188.707 116.917 189.287 114.982C190.935 109.49 189.863 100.678 184.633 96.6945C177.199 91.0307 166.066 92.076 156.979 92.076C153.498 92.076 149.361 92.5197 146.838 94.9217C145.011 96.6615 144.38 98.5825 142.87 100.38C141.275 102.278 139.882 106.01 139.882 108.451C139.882 110.061 139 111.225 139 112.859C139 114.386 139.553 116.384 139.906 117.898C140.235 119.307 140.256 121.43 140.862 122.726C141.58 124.266 141.642 126.898 142.748 128.161C144.365 130.01 145.482 133.291 147.598 134.903C148.435 135.54 148.593 132.875 148.7 131.963C148.811 131.011 149.461 129.2 150.243 128.605C152.224 127.095 153.395 124.752 156.195 126.085" stroke="#00ADB5" stroke-opacity="0.2" stroke-width="3" stroke-linecap="round"/>
<path d="M152.99 103.245C154.039 103.129 157.878 101.905 158.585 101.355C158.988 101.042 163.539 102.565 164.559 102.565C168.487 102.565 173.188 103.245 177.488 103.245" stroke="#00ADB5" stroke-opacity="0.2" stroke-width="3" stroke-linecap="round"/>
<path d="M157.753 108.689C160.495 108.994 163.114 109.37 165.92 109.37" stroke="#00ADB5" stroke-opacity="0.2" stroke-width="3" stroke-linecap="round"/>
<path d="M146.865 116.175C150.04 113.635 161.043 115.494 165.579 115.494C170.229 115.494 174.879 115.494 179.53 115.494" stroke="#00ADB5" stroke-opacity="0.2" stroke-width="3" stroke-linecap="round"/>
<path d="M101.127 163.601L114.578 178.872C119.375 184.319 115.579 192.886 108.321 192.989L87.9726 193.28C85.4889 193.316 83.1141 192.263 81.4723 190.399L68.0219 175.128C63.2244 169.681 67.0212 161.114 74.2791 161.011L94.6272 160.72C97.1108 160.684 99.4857 161.737 101.127 163.601Z" stroke="#00ADB5" stroke-opacity="0.2" stroke-width="5"/>
<path d="M88.7447 168.072C91.2298 168.348 93.5855 168.752 96.2302 168.752" stroke="#00ADB5" stroke-opacity="0.2" stroke-width="3" stroke-linecap="round"/>
<path d="M79.2176 170.794C83.3071 174.429 92.2295 176.238 97.5912 176.238" stroke="#00ADB5" stroke-opacity="0.2" stroke-width="3" stroke-linecap="round"/>
<path d="M86.7032 181.682C86.9829 183.919 91.6445 185.765 93.5082 185.765" stroke="#00ADB5" stroke-opacity="0.2" stroke-width="3" stroke-linecap="round"/>
<path d="M243.751 90.3837C243.751 93.3537 245.668 98.0925 244.091 100.932C242.886 103.101 243.751 107.644 243.751 110.118C243.751 111.038 243.212 114.16 244.81 113.143C247.424 111.479 250.524 110.333 252.938 108.455C255.533 106.436 259.423 103.725 262.427 102.633C263.897 102.098 265.324 100.765 266.888 100.591C270.025 100.243 266.867 98.0525 266.359 97.1888C265.982 96.5474 260.212 94.0794 259.062 93.8241C257.267 93.4251 253.501 91.3789 252.068 90.2325C248.485 87.3661 246.928 87.4341 242.39 89.7032" stroke="#00ADB5" stroke-opacity="0.2" stroke-width="3" stroke-linecap="round"/>
<path d="M250.556 109.438C250.978 111.76 252.749 113.068 253.959 114.882" stroke="#00ADB5" stroke-opacity="0.2" stroke-width="3" stroke-linecap="round"/>
<path d="M261.444 104.674C262.515 105.745 263.752 108.21 264.847 108.757" stroke="#00ADB5" stroke-opacity="0.2" stroke-width="3" stroke-linecap="round"/>
<ellipse cx="241" cy="84.5" rx="9" ry="6.5" fill="#00ADB5" fill-opacity="0.2"/>
<ellipse cx="55" cy="205" rx="11" ry="9" fill="#00ADB5" fill-opacity="0.2"/>
<path d="M60.1573 214.268C64.5856 219.188 64.7359 227.508 67.6428 233.322" stroke="#00ADB5" stroke-opacity="0.2" stroke-width="3" stroke-linecap="round"/>
<path d="M66.2818 221.073C68.9998 218.355 71.7258 215.598 71.7258 211.546" stroke="#00ADB5" stroke-opacity="0.2" stroke-width="3" stroke-linecap="round"/>
<path d="M51.3107 218.351C51.488 219.769 60.9643 219.712 62.8793 219.712" stroke="#00ADB5" stroke-opacity="0.2" stroke-width="3" stroke-linecap="round"/>
<path d="M66.2818 232.642C64.1465 235.044 62.7419 239.013 61.178 241.828C59.7311 244.433 59.3586 240.899 58.4938 239.787C57.2638 238.205 56.0339 236.604 55.3937 234.683" stroke="#00ADB5" stroke-opacity="0.2" stroke-width="3" stroke-linecap="round"/>
<path d="M67.5049 232.869C68.9625 233.117 70.5998 233.562 71.9189 234.243C72.1394 234.357 72.4265 234.566 72.679 234.594C72.9753 234.627 73.2002 234.814 73.4264 234.99C73.9609 235.406 74.528 235.416 75.0936 235.655C75.4472 235.803 75.8628 235.744 76.2434 235.744C76.6235 235.744 76.6397 236.017 76.9908 236.095C77.4636 236.2 77.7433 233.884 77.8531 233.444C78.111 232.413 78.658 231.183 78.658 230.11" stroke="#00ADB5" stroke-opacity="0.2" stroke-width="3" stroke-linecap="round"/>
<path d="M134.417 242.909C134.919 242.679 135.139 242.085 134.909 241.583L131.159 233.402C130.929 232.9 130.336 232.679 129.833 232.909C129.331 233.139 129.111 233.733 129.341 234.235L132.674 241.508L125.402 244.841C124.9 245.071 124.679 245.664 124.909 246.167C125.139 246.669 125.733 246.889 126.235 246.659L134.417 242.909ZM98.6518 229.937L133.652 242.937L134.348 241.063L99.3482 228.063L98.6518 229.937Z" fill="#00ADB5" fill-opacity="0.2"/>
<path d="M209.731 151.682C210.108 151.279 210.086 150.646 209.682 150.269L203.103 144.128C202.699 143.751 202.066 143.773 201.689 144.177C201.313 144.581 201.334 145.213 201.738 145.59L207.587 151.049L202.128 156.897C201.751 157.301 201.773 157.934 202.177 158.311C202.581 158.687 203.213 158.666 203.59 158.262L209.731 151.682ZM180.034 152.999L209.034 151.999L208.966 150.001L179.966 151.001L180.034 152.999Z" fill="#00ADB5" fill-opacity="0.2"/>
<path d="M29.3834 172.981C29.2291 175.605 28 178.373 28 180.859C28 181.661 28.2124 179.248 28.538 178.515C29.1262 177.192 29.2302 170.604 30.4594 170.253C33.8765 169.277 36.8845 171.385 39.9897 172.213C41.9716 172.741 42.308 174.365 44.6011 174.365" stroke="#00ADB5" stroke-opacity="0.2" stroke-width="3" stroke-linecap="round"/>
<path d="M192.006 79.2705C193.084 79.2705 204.327 81.2804 204.418 80.9614C204.874 79.3663 205.895 69.9601 205.148 69.5865" stroke="#00ADB5" stroke-opacity="0.2" stroke-width="3" stroke-linecap="round"/>
<path d="M87.5574 91.0296C88.7264 94.8289 91.8709 97.8889 93.6291 101.405C94.2993 102.746 94.681 104.278 95.32 105.556C96.9791 108.874 102.383 104.063 104.082 102.827C107.689 100.204 111.992 97.6809 115.918 95.7179C119.685 93.8344 117.712 92.1225 116.609 88.2628C115.636 84.8559 111.497 81.4299 109.692 78.2714C109.547 78.0169 102.906 80.1348 102.083 80.5003C100.441 81.2304 98.9445 81.6135 97.3951 82.7291C95.7664 83.9018 93.7485 84.4864 92.092 85.8418C89.808 87.7105 87.3988 88.634 85.4823 91.0296" stroke="#00ADB5" stroke-opacity="0.2" stroke-width="3" stroke-linecap="round"/>
<path d="M104.512 77.5969C104.512 76.0262 103.777 74.6472 103.244 73.1818C102.806 71.9768 102.89 70.7352 102.305 69.5651C101.919 68.7947 100.957 68.0068 100.731 67.2167C100.619 66.8239 99.2263 64.6972 99.463 65.5258C100.544 69.3094 101.943 73.2713 103.244 77.1742" stroke="#00ADB5" stroke-opacity="0.2" stroke-width="3" stroke-linecap="round"/>
<path d="M83.376 78.0197C84.6539 80.379 87.2735 83.6717 87.6032 86.4742C87.6791 87.1189 88.3867 88.0538 88.0025 86.709C87.7594 85.8581 87.0676 85.1232 86.6639 84.3606C85.4161 82.0037 84.0112 76.6464 81.6851 75.4833" stroke="#00ADB5" stroke-opacity="0.2" stroke-width="3" stroke-linecap="round"/>
<path d="M104.935 87.7424C104.935 88.675 105.563 88.4789 104.935 88.1651" stroke="#00ADB5" stroke-opacity="0.2" stroke-width="3" stroke-linecap="round"/>
<path d="M96.4363 92.6627C96.4363 92.4768 96.3297 92.7407 96.2723 92.8266" stroke="#00ADB5" stroke-opacity="0.2" stroke-width="3" stroke-linecap="round"/>
<path d="M100.535 97.7449C101.256 97.7449 101.657 96.9344 102.247 96.5973C102.834 96.2619 103.469 96.0235 104.06 95.6956C104.606 95.3923 105.25 95.1533 105.744 94.7575C106.211 94.3841 107.153 93.6464 107.748 93.6464" stroke="#00ADB5" stroke-opacity="0.2" stroke-width="3" stroke-linecap="round"/>
<path d="M81.5177 75.121C80.8326 75.121 80.8466 74.1746 81.5177 74.1373C81.76 74.1239 82.9931 74.017 82.9931 74.3013C82.9931 74.8453 82.1203 75.5453 81.6816 75.7403C80.9648 76.0589 81.1399 74.9498 81.3537 74.6292" stroke="#00ADB5" stroke-opacity="0.2" stroke-width="3" stroke-linecap="round"/>
<path d="M100.043 65.1206C100.151 64.6885 103.516 64.4588 100.863 65.576C100.584 65.6933 99.879 66.0511 99.879 65.6944C99.879 65.2394 99.9602 64.9981 100.371 64.7927" stroke="#00ADB5" stroke-opacity="0.2" stroke-width="3" stroke-linecap="round"/>
<path d="M159.036 77.0539C158.652 75.2639 157.383 73.602 157.018 71.8136C156.74 70.4447 156.435 68.8373 155.771 67.6027C154.67 65.5578 154.826 63.0756 153.702 61.0524C153.119 60.0039 153.008 59.6524 154.17 59.0873C155.697 58.3441 157.235 57.4423 158.859 56.9351C159.882 56.6152 160.892 56.4652 161.884 56.1345C162.976 55.7706 164.189 55.2285 165.305 54.9804C165.566 54.9225 166.079 55.0992 166.293 54.9284C166.56 54.7148 166.855 54.5513 167.177 54.4085C167.713 54.1702 168.158 55.4532 168.206 55.9057C168.358 57.3499 168.523 59.021 169.059 60.3974C169.767 62.2182 169.543 64.4652 170.41 66.1991C170.741 66.8607 171.196 67.447 171.398 68.1538C171.555 68.704 171.711 70.6405 172.365 70.6907C172.504 70.7014 173.397 71.0286 173.332 71.0546C171.081 71.9551 168.788 72.7917 166.584 73.8515C164.669 74.772 163.04 76.1181 160.907 76.1181" stroke="#00ADB5" stroke-opacity="0.2" stroke-width="3" stroke-linecap="round"/>
<path d="M164.089 71.4393C164.145 71.8915 164.837 71.6296 164.837 71.1586C164.837 70.6242 164.089 70.4584 164.089 71.065" stroke="#00ADB5" stroke-opacity="0.2" stroke-width="3" stroke-linecap="round"/>
<path d="M26.1627 116.588C30.7599 114.411 35.8309 113.17 40.3227 110.792C42.7239 109.521 44.9775 107.676 47.6925 106.9C50.2013 106.183 54.5948 103.844 56.7184 102.428" stroke="#00ADB5" stroke-opacity="0.2" stroke-width="3" stroke-linecap="round"/>
<path d="M58.8969 101C58.8969 102.697 60.1004 104.26 60.1928 105.925C60.2972 107.803 61.2936 109.565 61.748 111.382C62.3034 113.604 63.0814 115.748 63.5767 117.977C63.7331 118.681 64.1482 121.769 64.5991 121.995" stroke="#00ADB5" stroke-opacity="0.2" stroke-width="3" stroke-linecap="round"/>
<path d="M25.7202 117.588C26.2013 119.78 27.2754 121.946 27.2754 124.198C27.2754 125.736 28.49 127.27 28.5714 128.734C28.6686 130.484 29.6616 132.614 30.1409 134.292C30.3838 135.142 30.3519 135.081 31.0337 134.551C31.7543 133.991 32.4575 133.711 33.2368 133.341C38.0275 131.072 43.1863 130.225 48.0684 128.417C50.6665 127.455 52.92 126.217 55.657 125.609C57.5326 125.192 59.4324 123.696 61.2152 122.916C62.3251 122.431 63.601 122.401 64.5991 121.735" stroke="#00ADB5" stroke-opacity="0.2" stroke-width="3" stroke-linecap="round"/>
<path d="M28.5714 135.473C28.0449 137.368 26.4489 138.764 25.9794 140.642C25.6134 142.106 24.6163 143.438 24.1651 144.904C23.8534 145.917 23.0915 147.242 22.5523 148.173C22.086 148.978 21.3946 149.657 20.9252 150.491C20.7208 150.855 20.5925 151.314 20.3348 151.6C19.1823 152.881 21.3227 152.562 21.9764 152.45C24.0707 152.089 25.922 151.473 27.9378 150.909C32.2467 149.702 36.6387 148.932 41.0126 147.914C44.0018 147.218 47.1665 147.624 50.1995 147.381C51.5937 147.269 52.9746 146.618 54.361 146.618C57.3898 146.618 58.6657 143.659 59.9337 141.376C61.0114 139.436 61.9061 137.409 62.6552 135.329C63.1127 134.058 63.2629 132.837 63.7063 131.57C64.498 129.309 64.6331 126.817 65.3767 124.586" stroke="#00ADB5" stroke-opacity="0.2" stroke-width="3" stroke-linecap="round"/>
<path d="M124 55C124.409 62.3542 128.38 68.4267 130.073 75.1997C130.519 76.9829 131.13 80.1062 130.502 76.652C130.005 73.92 129.067 71.4856 129.38 68.6645C129.828 64.6364 136.476 63.1123 136.476 67.7403C136.476 68.7425 137.207 71.2871 137.797 72.0971C138.752 73.4111 138.47 75.5162 139.447 76.982" stroke="#00ADB5" stroke-opacity="0.2" stroke-width="3" stroke-linecap="round"/>
<path d="M284.708 135.235C284.708 132.343 283.609 131.24 282.958 128.964C282.318 126.721 281.04 126.22 283.222 128.403C284.927 130.108 285.773 131.225 286.952 133.452C287.519 134.524 291.371 134.384 291.837 133.452" stroke="#00ADB5" stroke-opacity="0.2" stroke-width="3" stroke-linecap="round"/>
<path d="M311 122L313.47 127.873L321.462 127.873L314.996 131.503L317.466 137.377L311 133.747L304.534 137.377L307.004 131.503L300.538 127.873L308.53 127.873L311 122Z" fill="#00ADB5" fill-opacity="0.2"/>
<path d="M224.5 50L227.98 58.2918H239.241L230.131 63.4164L233.611 71.7082L224.5 66.5836L215.389 71.7082L218.869 63.4164L209.759 58.2918H221.02L224.5 50Z" fill="#00ADB5" fill-opacity="0.2"/>
<path d="M17 79.8816C23.1709 85.4915 29.1149 89.8717 36.589 93.0187C40.0952 94.495 40.3703 85.0998 41.1365 83.1076C41.9771 80.922 41.3798 78.6342 40.8256 76.6945C40.1048 74.1717 43.1315 75.6447 45.684 76.2281C47.8721 76.7282 50.4322 76.3836 52.68 76.3836C55.2055 76.3836 54.5788 68.8462 53.7295 66.9777C51.1777 61.3638 48.4824 53.3421 48.4824 47" stroke="#00ADB5" stroke-opacity="0.2" stroke-width="3" stroke-linecap="round"/>
<path d="M73.0522 57.2218C72.1001 54.0932 71.3747 50.8873 70.3226 47.7893C70.0489 46.9834 69.8001 46.4808 69.7766 45.6359C69.7115 43.2923 68.4939 40.8988 68.4118 38.5994C68.3264 36.2083 68.1612 33.8026 68.1388 31.4112C68.1348 30.9818 67.7916 28.7558 68.1995 28.3479C68.6019 27.9455 71.0316 28.0272 71.6267 28.0143C72.8212 27.9883 73.9672 27.945 75.0843 28.4238C76.9199 29.2104 78.6002 31.4184 80.1646 32.6699C81.3111 33.5872 83.065 34.3282 83.8041 35.6422C84.0597 36.0966 84.2731 36.5055 84.6534 36.8858C85.4886 37.721 86.2941 38.7554 86.7006 39.8732C87.1134 41.0085 88.6173 43.4844 89.7033 43.8464" stroke="#00ADB5" stroke-opacity="0.2" stroke-width="3" stroke-linecap="round"/>
<path d="M70.8685 43.5735C72.6323 41.9567 74.8741 40.8418 76.6008 39.206C77.8225 38.0487 79.6144 35.9268 81.2413 35.3845" stroke="#00ADB5" stroke-opacity="0.2" stroke-width="3" stroke-linecap="round"/>
<path d="M120.707 41.8489C120.488 39.8856 118.764 37.679 117.977 35.8436C117.323 34.317 116.828 32.7622 116.203 31.2334C114.948 28.1669 113.895 24.9192 112.518 21.9222C111.287 19.2448 110.819 16.2129 110.197 13.3541C109.715 11.1368 110.032 10.6879 112.093 9.97231C114.582 9.10794 118.125 8.53979 120.691 9.5022C121.574 9.83326 122.688 10.4021 123.376 11.0642C124.163 11.8227 124.521 12.8113 125.468 13.4602C130.01 16.5718 131.261 21.5129 134.082 25.7438" stroke="#00ADB5" stroke-opacity="0.2" stroke-width="3" stroke-linecap="round"/>
<path d="M114.974 23.56C118.291 21.3487 122.28 19.2565 125.074 16.4629" stroke="#00ADB5" stroke-opacity="0.2" stroke-width="3" stroke-linecap="round"/>
<path d="M157.528 6.75778C159.419 9.48866 159.825 13.4272 161.362 16.4204C161.958 17.581 162.035 18.0748 162.217 19.3476C162.533 21.5637 163.151 24.1656 163.823 26.3161C164.707 29.146 165.459 31.9509 166.388 34.7352" stroke="#00ADB5" stroke-opacity="0.2" stroke-width="3" stroke-linecap="round"/>
<path d="M151 8.15666C155.151 7.0739 159.381 3.79113 163.693 3.49375C166.119 3.32646 169.115 2.74789 171.31 2.12078C173.648 1.45264 177.89 3.65537 178.045 6.29149C178.23 9.43384 173.065 13.445 170.791 14.892C169.258 15.8681 167.56 17.2332 165.921 18.0524C162.493 19.7666 167.45 18.6091 168.745 18.156C172.719 16.765 175.755 16.0836 179.91 16.0836C181.632 16.0836 185.054 20.6798 183.848 21.8863C180.99 24.7442 176.475 26.3901 173.382 29.1397C170.811 31.4254 167.473 32.7172 164.989 35.2015" stroke="#00ADB5" stroke-opacity="0.2" stroke-width="3" stroke-linecap="round"/>
<path d="M245 45.1856C252.892 44.1991 261.093 40.917 269.04 42.3619C272.037 42.9069 275.513 42.3879 278.573 42.3879" stroke="#00ADB5" stroke-opacity="0.2" stroke-width="3" stroke-linecap="round"/>
<path d="M264.118 42.8541C265.662 43.0471 264.295 62.372 263.652 64.3035" stroke="#00ADB5" stroke-opacity="0.2" stroke-width="3" stroke-linecap="round"/>
<path d="M225.8 13.5521C221.733 13.5521 214.924 11.7608 211.336 14.6315C210.805 15.0562 210.095 15.052 209.566 15.5813C208.883 16.2646 208.078 17.2377 207.342 17.8264C205.406 19.3758 206.332 21.8007 205.507 23.655C204.157 26.6944 205.678 31.1828 208.012 33.283C211.178 36.1332 215.482 35.977 219.388 36.845C222.902 37.6257 228.15 36.9522 230.074 33.5853C230.406 33.0043 230.91 32.5637 231.24 31.9878C231.686 31.2074 232.028 29.7611 232.492 29.1814C233.125 28.3901 233.917 24.3978 232.988 23.655C230.733 21.8511 229.488 17.5203 226.404 16.6391C225.033 16.2473 223.452 14.4197 221.914 14.3293C220.151 14.2255 218.432 13.5521 216.474 13.5521" stroke="#00ADB5" stroke-opacity="0.2" stroke-width="3" stroke-linecap="round"/>
<path d="M277.785 124.643C277.972 124.643 278.607 124.748 278.672 124.518C278.77 124.175 278.754 123.743 278.347 123.743C277.274 123.743 277.405 124.207 277.11 125.093" stroke="#00ADB5" stroke-opacity="0.2" stroke-width="3" stroke-linecap="round"/>
<path d="M278.908 86.5463C280.124 87.2223 281.049 88.3161 282.312 88.9477C283.574 89.5784 285.078 89.5483 286.465 89.4987C287.525 89.4608 288.707 89.3953 289.303 88.4378C290.322 86.7988 291.217 85.0715 291.482 83.1252C291.615 82.1458 291.622 81.1566 291.786 80.181C291.912 79.4348 291.876 78.9934 291.326 78.4623C290.163 77.3411 289.142 76.0112 287.641 75.329C286.907 74.9952 285.98 75.1663 285.199 75.1398C284.211 75.1063 283.237 75 282.246 75C280.338 75 278.675 75.5004 277.082 76.5954C275.158 77.9181 274.023 80.2161 274.023 82.4755C274.023 83.6954 274.023 84.9153 274.023 86.1351C274.023 87.5814 273.967 89.0408 274.031 90.4856C274.095 91.9218 274.467 93.3811 274.648 94.8031C274.76 95.6914 274.849 96.6421 275.125 97.5005C275.68 99.2286 275.689 101.129 276.457 102.805C276.725 103.391 276.868 103.465 277.016 104.096C277.143 104.635 277.387 104.785 277.797 105.132C280.31 107.258 283.71 106.412 286.753 107.057C287.76 107.27 288.833 107.358 289.854 107.188C290.417 107.094 290.983 106.826 291.556 106.826C292.217 106.826 292.237 104.316 292.23 103.866C292.208 102.255 291.67 100.538 291.194 99.0137C290.815 97.8003 289.053 98.1701 288.085 97.8624C287.23 97.5901 286.476 97.2045 285.569 97.2045C284.902 97.2045 284.366 97.5166 283.735 97.6568C283.556 97.6966 283.18 98.2634 283.052 98.3887C282.643 98.7901 282.223 99.0727 281.728 99.3509C280.898 99.818 280.47 98.6267 280.207 97.9446C279.499 96.1083 278.884 94.3562 278.694 92.3771C278.56 90.9828 278.612 89.574 278.612 88.1747" stroke="#00ADB5" stroke-opacity="0.2" stroke-width="3" stroke-linecap="round"/>
<path d="M303.125 78.0962C301.555 81.6759 299.063 85.4526 299.063 89.4347C299.063 92.0646 298.318 95.8984 299.91 98.1972C300.529 99.0919 302.089 99.7167 302.448 100.435" stroke="#00ADB5" stroke-opacity="0.2" stroke-width="3" stroke-linecap="round"/>
<path d="M307.606 95.6728C306.714 94.4566 305.963 92.2895 305.963 90.786C305.963 89.5988 306.715 88.3525 307.49 87.4922C307.858 87.0833 308.561 86.893 308.8 86.4136" stroke="#00ADB5" stroke-opacity="0.2" stroke-width="3" stroke-linecap="round"/>
<path d="M313.579 91.9393C313.526 91.2994 313.281 90.8052 313.281 90.1472C313.281 89.5941 313.685 89.6381 313.878 89.2511" stroke="#00ADB5" stroke-opacity="0.2" stroke-width="3" stroke-linecap="round"/>
<path d="M182 247.34C190.168 240.475 197.522 232.392 206.046 226" stroke="#00ADB5" stroke-opacity="0.2" stroke-width="3" stroke-linecap="round"/>
<path d="M193.722 241.029C193.722 240.541 194.657 238.853 195.058 238.624C195.663 238.278 196.442 238.023 197.195 238.023C198.543 238.023 201.537 237.356 201.537 239.375C201.537 240.15 201.629 240.714 201.537 241.63C201.389 243.108 200.155 245.657 199.132 246.739C198.868 247.019 197.922 247.748 198.899 247.574C201.404 247.129 203.743 246.739 206.313 246.739C212.249 246.739 218.179 247.942 224.08 247.942" stroke="#00ADB5" stroke-opacity="0.2" stroke-width="3" stroke-linecap="round"/>
<path d="M194.323 252.45C196.416 250.863 198.12 248.761 199.75 246.723C200.249 246.099 201.011 245.031 201.704 244.635C203.201 243.78 206.493 242.237 207.248 240.728" stroke="#00ADB5" stroke-opacity="0.2" stroke-width="3" stroke-linecap="round"/>
<path d="M14.4 123.52C11.9671 123.277 9.48036 122.618 7.03607 122.618C6.35316 122.618 5.81249 122.668 5.23265 123.069C3.74075 124.102 3.65747 124.834 2.82809 126.492C2.22084 127.707 1.46629 130.992 2.54422 132.07C4.01002 133.535 7.90912 132.501 9.42393 131.635C10.1353 131.229 10.3114 130.356 11.2441 130.149C12.0667 129.966 12.6842 129.832 13.6319 129.832C17.6823 129.832 17.669 137.418 16.4372 139.684C15.3301 141.721 13.8497 144.265 11.9955 145.695C10.9731 146.484 9.03005 146.363 7.7875 146.363C5.91443 146.363 4.48123 144.828 4.48123 142.756" stroke="#00ADB5" stroke-opacity="0.2" stroke-width="3" stroke-linecap="round"/>
<path d="M5.6835 113C5.9897 114.99 6.71357 117.037 7.18635 119.011C7.46571 120.178 7.67774 121.442 8.23835 122.501C9.38147 124.661 8.87025 127.41 9.82469 129.531C10.6449 131.354 10.3356 133.331 10.5093 135.242C10.6583 136.881 11.2089 138.451 11.411 140.068C11.8042 143.213 13.4983 146.099 13.4983 149.235C13.4983 151.649 13.9505 154.933 14.7006 157.184" stroke="#00ADB5" stroke-opacity="0.2" stroke-width="3" stroke-linecap="round"/>
</svg>
