<svg width="803" height="306" viewBox="0 0 803 306" fill="none" xmlns="http://www.w3.org/2000/svg">
<path d="M80.4027 261.023C79.6593 265.195 72.0582 292.02 84.3698 298.195C241.91 309.006 682.866 298.195 794.221 298.195C803.204 293.129 799.234 275.849 798.458 270.779C786.517 193.344 798.458 71.7341 794.697 16.0836C785.396 2.63201 760.732 2.75044 751.044 3.09491C719.363 4.23579 687.597 3.71548 655.876 4.00119C634.869 4.19009 364.363 5.99264 343.337 5.84708C293.506 5.51144 123.994 3.0949 96.6527 16.0836C64.0782 31.5587 79.8266 148.03 80.4027 194.356C80.5427 205.624 34.1939 211.244 16.5149 213.345C11.9872 213.889 7.48252 214.467 3 215.108C24.205 223.876 71.8665 227.163 81.9132 241.616" stroke="#00ADB5" stroke-opacity="0.78" stroke-width="5" stroke-linecap="round" stroke-linejoin="round"/>
</svg>
