<svg width="802" height="307" viewBox="0 0 802 307" fill="none" xmlns="http://www.w3.org/2000/svg">
<path d="M722.189 256.122C722.993 260.282 730.984 286.994 718.763 293.347C561.397 306.448 120.33 302.052 8.98763 303.671C-0.0688161 298.736 3.64934 281.4 4.3518 276.319C15.1658 198.719 1.457 77.2957 4.40827 21.5963C13.5123 8.01088 38.1755 7.77059 47.8682 7.97411C79.5615 8.65413 111.317 7.67188 143.039 7.49622C164.046 7.37959 434.55 5.24782 455.571 4.79649C505.393 3.73616 674.852 -1.14543 702.379 11.4442C735.175 26.444 721.122 143.132 721.22 189.462C721.244 200.73 767.669 205.675 785.377 207.519C789.912 207.997 794.425 208.51 798.916 209.086C777.841 218.161 730.232 222.141 720.397 236.738" stroke="#00ADB5" stroke-opacity="0.78" stroke-width="5" stroke-linecap="round" stroke-linejoin="round"/>
</svg>
